<?xml version="1.0" encoding="UTF-8"?>
<!DOCTYPE svg PUBLIC "-//W3C//DTD SVG 1.1//EN" "http://www.w3.org/Graphics/SVG/1.1/DTD/svg11.dtd">
<!-- Creator: CorelDRAW X7 -->
<svg xmlns="http://www.w3.org/2000/svg" xml:space="preserve" width="80px" height="80px" version="1.1" style="shape-rendering:geometricPrecision; text-rendering:geometricPrecision; image-rendering:optimizeQuality; fill-rule:evenodd; clip-rule:evenodd"
viewBox="0 0 2347 2347"
 xmlns:xlink="http://www.w3.org/1999/xlink">
 <defs>
  <style type="text/css">
   <![CDATA[
    .str0 {stroke:gray;stroke-width:106.469}
    .fil0 {fill:#4D4D4D}
    .fil1 {fill:white;fill-rule:nonzero}
   ]]>
  </style>
 </defs>
 <g id="Camada_x0020_1">
  <metadata id="CorelCorpID_0Corel-Layer"/>
  <g id="_651818989728">
   <circle class="fil0 str0" cx="1174" cy="1174" r="1120"/>
   <path class="fil1" d="M610 1267c0,35 -13,62 -38,81 -25,20 -60,29 -103,29 -47,0 -83,-6 -108,-18l0 -44c16,7 34,12 53,16 19,4 38,6 57,6 30,0 53,-6 69,-18 15,-11 23,-27 23,-48 0,-14 -3,-25 -8,-34 -6,-9 -15,-17 -28,-24 -13,-7 -32,-16 -59,-25 -36,-13 -63,-29 -79,-47 -15,-18 -23,-42 -23,-71 0,-30 11,-55 34,-73 23,-18 53,-27 91,-27 40,0 76,8 109,22l-15 40c-32,-14 -64,-21 -95,-21 -24,0 -43,6 -57,16 -14,11 -21,25 -21,44 0,14 3,25 8,34 5,8 13,16 25,24 13,7 31,15 56,24 41,15 70,31 85,48 16,16 24,39 24,66z"/>
   <path id="1" class="fil1" d="M860 1011c-43,0 -78,15 -103,44 -25,29 -38,68 -38,119 0,52 13,92 37,120 24,28 59,42 104,42 27,0 59,-5 94,-15l0 41c-27,10 -61,15 -101,15 -59,0 -104,-17 -135,-53 -32,-35 -48,-85 -48,-151 0,-40 8,-76 23,-107 15,-31 37,-54 66,-71 29,-16 63,-25 102,-25 41,0 78,8 109,23l-20 40c-30,-15 -60,-22 -90,-22z"/>
   <path id="2" class="fil1" d="M1373 1173c0,64 -16,114 -48,150 -32,36 -76,54 -134,54 -58,0 -103,-17 -134,-53 -32,-36 -48,-86 -48,-151 0,-65 16,-115 48,-150 31,-36 77,-53 135,-53 57,0 101,18 133,54 32,36 48,86 48,149zm-315 0c0,54 11,95 34,122 23,28 56,42 99,42 44,0 78,-14 100,-41 22,-28 34,-69 34,-123 0,-53 -12,-93 -34,-121 -22,-27 -55,-41 -99,-41 -44,0 -77,14 -100,41 -23,28 -34,68 -34,121z"/>
   <path id="3" class="fil1" d="M1685 1267c0,35 -13,62 -38,81 -25,20 -59,29 -103,29 -47,0 -83,-6 -108,-18l0 -44c16,7 34,12 53,16 19,4 38,6 57,6 30,0 54,-6 69,-18 16,-11 23,-27 23,-48 0,-14 -2,-25 -8,-34 -5,-9 -15,-17 -27,-24 -13,-7 -33,-16 -59,-25 -37,-13 -64,-29 -79,-47 -16,-18 -24,-42 -24,-71 0,-30 11,-55 34,-73 23,-18 54,-27 91,-27 40,0 76,8 109,22l-14 40c-33,-14 -65,-21 -96,-21 -24,0 -43,6 -57,16 -14,11 -21,25 -21,44 0,14 3,25 8,34 5,8 14,16 26,24 12,7 30,15 55,24 41,15 70,31 86,48 15,16 23,39 23,66z"/>
   <path id="4" class="fil1" d="M1987 1372l-221 0 0 -396 221 0 0 41 -175 0 0 127 164 0 0 41 -164 0 0 146 175 0 0 41z"/>
  </g>
 </g>
</svg>
